<mxfile host="app.diagrams.net" modified="2023-11-15T05:07:13.198Z" agent="Mozilla/5.0 (Macintosh; Intel Mac OS X 10_15_7) AppleWebKit/537.36 (KHTML, like Gecko) Chrome/106.0.0.0 Safari/537.36" etag="OA9-gvvxJAQ-NsSLUPp1" version="22.1.1" type="github">
  <diagram name="Page-1" id="DnFzBC1OPUviNK0UCLak">
    <mxGraphModel dx="1520" dy="884" grid="1" gridSize="10" guides="1" tooltips="1" connect="1" arrows="1" fold="1" page="1" pageScale="1" pageWidth="827" pageHeight="1169" math="0" shadow="0">
      <root>
        <mxCell id="0" />
        <mxCell id="1" parent="0" />
        <mxCell id="BFrZ-Bxtxj48bdYGRmqw-20" style="edgeStyle=orthogonalEdgeStyle;rounded=0;orthogonalLoop=1;jettySize=auto;html=1;exitX=1;exitY=0.5;exitDx=0;exitDy=0;entryX=0;entryY=0.5;entryDx=0;entryDy=0;curved=1;" edge="1" parent="1" source="BFrZ-Bxtxj48bdYGRmqw-5" target="BFrZ-Bxtxj48bdYGRmqw-6">
          <mxGeometry relative="1" as="geometry" />
        </mxCell>
        <mxCell id="BFrZ-Bxtxj48bdYGRmqw-21" style="edgeStyle=orthogonalEdgeStyle;rounded=0;orthogonalLoop=1;jettySize=auto;html=1;exitX=1;exitY=0.5;exitDx=0;exitDy=0;entryX=0;entryY=0.5;entryDx=0;entryDy=0;curved=1;" edge="1" parent="1" source="BFrZ-Bxtxj48bdYGRmqw-5" target="BFrZ-Bxtxj48bdYGRmqw-7">
          <mxGeometry relative="1" as="geometry" />
        </mxCell>
        <mxCell id="BFrZ-Bxtxj48bdYGRmqw-5" value="Final&lt;br&gt;Confirmation&lt;br&gt;Request" style="ellipse;shape=doubleEllipse;whiteSpace=wrap;html=1;aspect=fixed;" vertex="1" parent="1">
          <mxGeometry x="160" y="170" width="90" height="90" as="geometry" />
        </mxCell>
        <mxCell id="BFrZ-Bxtxj48bdYGRmqw-22" style="edgeStyle=orthogonalEdgeStyle;curved=1;rounded=0;orthogonalLoop=1;jettySize=auto;html=1;exitX=1;exitY=0.5;exitDx=0;exitDy=0;entryX=0;entryY=0.5;entryDx=0;entryDy=0;" edge="1" parent="1" source="BFrZ-Bxtxj48bdYGRmqw-6" target="BFrZ-Bxtxj48bdYGRmqw-8">
          <mxGeometry relative="1" as="geometry" />
        </mxCell>
        <mxCell id="BFrZ-Bxtxj48bdYGRmqw-24" style="edgeStyle=orthogonalEdgeStyle;curved=1;rounded=0;orthogonalLoop=1;jettySize=auto;html=1;exitX=1;exitY=0.5;exitDx=0;exitDy=0;entryX=0;entryY=0.5;entryDx=0;entryDy=0;" edge="1" parent="1" source="BFrZ-Bxtxj48bdYGRmqw-6" target="BFrZ-Bxtxj48bdYGRmqw-9">
          <mxGeometry relative="1" as="geometry" />
        </mxCell>
        <mxCell id="BFrZ-Bxtxj48bdYGRmqw-25" style="edgeStyle=orthogonalEdgeStyle;curved=1;rounded=0;orthogonalLoop=1;jettySize=auto;html=1;entryX=0;entryY=0.5;entryDx=0;entryDy=0;" edge="1" parent="1" source="BFrZ-Bxtxj48bdYGRmqw-6" target="BFrZ-Bxtxj48bdYGRmqw-13">
          <mxGeometry relative="1" as="geometry" />
        </mxCell>
        <mxCell id="BFrZ-Bxtxj48bdYGRmqw-6" value="GetAddress&lt;br&gt;ServiceNode" style="ellipse;whiteSpace=wrap;html=1;" vertex="1" parent="1">
          <mxGeometry x="324" y="150" width="90" height="60" as="geometry" />
        </mxCell>
        <mxCell id="BFrZ-Bxtxj48bdYGRmqw-23" style="edgeStyle=orthogonalEdgeStyle;curved=1;rounded=0;orthogonalLoop=1;jettySize=auto;html=1;exitX=1;exitY=0.5;exitDx=0;exitDy=0;entryX=0;entryY=0.5;entryDx=0;entryDy=0;" edge="1" parent="1" source="BFrZ-Bxtxj48bdYGRmqw-7" target="BFrZ-Bxtxj48bdYGRmqw-8">
          <mxGeometry relative="1" as="geometry">
            <mxPoint x="480" y="260.0000000000001" as="targetPoint" />
          </mxGeometry>
        </mxCell>
        <mxCell id="BFrZ-Bxtxj48bdYGRmqw-7" value="RainService&lt;br&gt;Node" style="ellipse;whiteSpace=wrap;html=1;" vertex="1" parent="1">
          <mxGeometry x="324" y="250" width="90" height="60" as="geometry" />
        </mxCell>
        <mxCell id="BFrZ-Bxtxj48bdYGRmqw-27" style="rounded=0;orthogonalLoop=1;jettySize=auto;html=1;entryX=0;entryY=0.5;entryDx=0;entryDy=0;" edge="1" parent="1" source="BFrZ-Bxtxj48bdYGRmqw-8" target="BFrZ-Bxtxj48bdYGRmqw-12">
          <mxGeometry relative="1" as="geometry" />
        </mxCell>
        <mxCell id="BFrZ-Bxtxj48bdYGRmqw-29" style="rounded=0;orthogonalLoop=1;jettySize=auto;html=1;entryX=0;entryY=0.5;entryDx=0;entryDy=0;" edge="1" parent="1" source="BFrZ-Bxtxj48bdYGRmqw-8" target="BFrZ-Bxtxj48bdYGRmqw-14">
          <mxGeometry relative="1" as="geometry">
            <mxPoint x="700.0000000000002" y="240.0000000000001" as="targetPoint" />
          </mxGeometry>
        </mxCell>
        <mxCell id="BFrZ-Bxtxj48bdYGRmqw-8" value="BRMSRule&lt;br&gt;Evaluation&lt;br&gt;Node" style="ellipse;whiteSpace=wrap;html=1;" vertex="1" parent="1">
          <mxGeometry x="510" y="190" width="90" height="60" as="geometry" />
        </mxCell>
        <mxCell id="BFrZ-Bxtxj48bdYGRmqw-31" style="edgeStyle=orthogonalEdgeStyle;curved=1;rounded=0;orthogonalLoop=1;jettySize=auto;html=1;" edge="1" parent="1" source="BFrZ-Bxtxj48bdYGRmqw-9" target="BFrZ-Bxtxj48bdYGRmqw-11">
          <mxGeometry relative="1" as="geometry">
            <Array as="points">
              <mxPoint x="940" y="40" />
            </Array>
          </mxGeometry>
        </mxCell>
        <mxCell id="BFrZ-Bxtxj48bdYGRmqw-9" value="Common&lt;br&gt;Validation&lt;br&gt;ServiceNode" style="ellipse;whiteSpace=wrap;html=1;" vertex="1" parent="1">
          <mxGeometry x="470" y="30" width="90" height="60" as="geometry" />
        </mxCell>
        <mxCell id="BFrZ-Bxtxj48bdYGRmqw-40" style="edgeStyle=orthogonalEdgeStyle;curved=1;rounded=0;orthogonalLoop=1;jettySize=auto;html=1;" edge="1" parent="1" source="BFrZ-Bxtxj48bdYGRmqw-10" target="BFrZ-Bxtxj48bdYGRmqw-19">
          <mxGeometry relative="1" as="geometry" />
        </mxCell>
        <mxCell id="BFrZ-Bxtxj48bdYGRmqw-10" value="TaskCreation&lt;br&gt;ServiceNode" style="ellipse;whiteSpace=wrap;html=1;" vertex="1" parent="1">
          <mxGeometry x="990" y="200" width="90" height="60" as="geometry" />
        </mxCell>
        <mxCell id="BFrZ-Bxtxj48bdYGRmqw-32" style="edgeStyle=orthogonalEdgeStyle;curved=1;rounded=0;orthogonalLoop=1;jettySize=auto;html=1;entryX=0.5;entryY=0;entryDx=0;entryDy=0;" edge="1" parent="1" source="BFrZ-Bxtxj48bdYGRmqw-11" target="BFrZ-Bxtxj48bdYGRmqw-10">
          <mxGeometry relative="1" as="geometry" />
        </mxCell>
        <mxCell id="BFrZ-Bxtxj48bdYGRmqw-37" style="edgeStyle=orthogonalEdgeStyle;curved=1;rounded=0;orthogonalLoop=1;jettySize=auto;html=1;entryX=0;entryY=0.5;entryDx=0;entryDy=0;" edge="1" parent="1" source="BFrZ-Bxtxj48bdYGRmqw-11" target="BFrZ-Bxtxj48bdYGRmqw-15">
          <mxGeometry relative="1" as="geometry" />
        </mxCell>
        <mxCell id="BFrZ-Bxtxj48bdYGRmqw-11" value="InitiateOrder&lt;br&gt;ServiceNode" style="ellipse;whiteSpace=wrap;html=1;" vertex="1" parent="1">
          <mxGeometry x="900" y="70" width="90" height="60" as="geometry" />
        </mxCell>
        <mxCell id="BFrZ-Bxtxj48bdYGRmqw-30" style="edgeStyle=orthogonalEdgeStyle;curved=1;rounded=0;orthogonalLoop=1;jettySize=auto;html=1;entryX=0;entryY=0.5;entryDx=0;entryDy=0;" edge="1" parent="1" source="BFrZ-Bxtxj48bdYGRmqw-12" target="BFrZ-Bxtxj48bdYGRmqw-11">
          <mxGeometry relative="1" as="geometry" />
        </mxCell>
        <mxCell id="BFrZ-Bxtxj48bdYGRmqw-42" style="edgeStyle=orthogonalEdgeStyle;curved=1;rounded=0;orthogonalLoop=1;jettySize=auto;html=1;entryX=0;entryY=0.5;entryDx=0;entryDy=0;" edge="1" parent="1" source="BFrZ-Bxtxj48bdYGRmqw-12" target="BFrZ-Bxtxj48bdYGRmqw-17">
          <mxGeometry relative="1" as="geometry" />
        </mxCell>
        <mxCell id="BFrZ-Bxtxj48bdYGRmqw-12" value="GetPricing&lt;br&gt;ServiceNode" style="ellipse;whiteSpace=wrap;html=1;" vertex="1" parent="1">
          <mxGeometry x="700" y="100" width="90" height="60" as="geometry" />
        </mxCell>
        <mxCell id="BFrZ-Bxtxj48bdYGRmqw-26" style="rounded=0;orthogonalLoop=1;jettySize=auto;html=1;entryX=0;entryY=0.5;entryDx=0;entryDy=0;" edge="1" parent="1" source="BFrZ-Bxtxj48bdYGRmqw-13" target="BFrZ-Bxtxj48bdYGRmqw-12">
          <mxGeometry relative="1" as="geometry" />
        </mxCell>
        <mxCell id="BFrZ-Bxtxj48bdYGRmqw-28" style="rounded=0;orthogonalLoop=1;jettySize=auto;html=1;entryX=0;entryY=0.5;entryDx=0;entryDy=0;" edge="1" parent="1" source="BFrZ-Bxtxj48bdYGRmqw-13" target="BFrZ-Bxtxj48bdYGRmqw-14">
          <mxGeometry relative="1" as="geometry" />
        </mxCell>
        <mxCell id="BFrZ-Bxtxj48bdYGRmqw-13" value="UtsValidation&lt;br&gt;ServiceNode" style="ellipse;whiteSpace=wrap;html=1;" vertex="1" parent="1">
          <mxGeometry x="520" y="100" width="90" height="60" as="geometry" />
        </mxCell>
        <mxCell id="BFrZ-Bxtxj48bdYGRmqw-33" style="edgeStyle=orthogonalEdgeStyle;curved=1;rounded=0;orthogonalLoop=1;jettySize=auto;html=1;exitX=1;exitY=0.5;exitDx=0;exitDy=0;entryX=0;entryY=0.5;entryDx=0;entryDy=0;fillColor=#d5e8d4;strokeColor=#82b366;" edge="1" parent="1" source="BFrZ-Bxtxj48bdYGRmqw-14" target="BFrZ-Bxtxj48bdYGRmqw-10">
          <mxGeometry relative="1" as="geometry" />
        </mxCell>
        <mxCell id="BFrZ-Bxtxj48bdYGRmqw-14" value="Get&lt;br&gt;ReturnPricing&lt;br&gt;ServiceNode" style="ellipse;whiteSpace=wrap;html=1;fillColor=#d5e8d4;strokeColor=#82b366;" vertex="1" parent="1">
          <mxGeometry x="690" y="200" width="110" height="60" as="geometry" />
        </mxCell>
        <mxCell id="BFrZ-Bxtxj48bdYGRmqw-39" value="" style="edgeStyle=orthogonalEdgeStyle;curved=1;rounded=0;orthogonalLoop=1;jettySize=auto;html=1;" edge="1" parent="1" source="BFrZ-Bxtxj48bdYGRmqw-15" target="BFrZ-Bxtxj48bdYGRmqw-19">
          <mxGeometry relative="1" as="geometry" />
        </mxCell>
        <mxCell id="BFrZ-Bxtxj48bdYGRmqw-15" value="CheckoutData&lt;br&gt;Addition&lt;br&gt;Response&lt;br&gt;ServiceNode" style="ellipse;whiteSpace=wrap;html=1;" vertex="1" parent="1">
          <mxGeometry x="1090" y="65" width="170" height="70" as="geometry" />
        </mxCell>
        <mxCell id="BFrZ-Bxtxj48bdYGRmqw-41" style="edgeStyle=orthogonalEdgeStyle;curved=1;rounded=0;orthogonalLoop=1;jettySize=auto;html=1;entryX=0.5;entryY=1;entryDx=0;entryDy=0;" edge="1" parent="1" source="BFrZ-Bxtxj48bdYGRmqw-17" target="BFrZ-Bxtxj48bdYGRmqw-19">
          <mxGeometry relative="1" as="geometry" />
        </mxCell>
        <mxCell id="BFrZ-Bxtxj48bdYGRmqw-17" value="Eta&lt;br&gt;ServiceNode" style="ellipse;whiteSpace=wrap;html=1;" vertex="1" parent="1">
          <mxGeometry x="960" y="310" width="90" height="60" as="geometry" />
        </mxCell>
        <mxCell id="BFrZ-Bxtxj48bdYGRmqw-19" value="Final&lt;br&gt;Confirmation&lt;br&gt;Response" style="ellipse;shape=doubleEllipse;whiteSpace=wrap;html=1;aspect=fixed;" vertex="1" parent="1">
          <mxGeometry x="1210" y="220" width="80" height="80" as="geometry" />
        </mxCell>
      </root>
    </mxGraphModel>
  </diagram>
</mxfile>
